<svg width="1024" height="1024" viewBox="0 0 1024 1024" fill="none" xmlns="http://www.w3.org/2000/svg">
<rect width="1024" height="1024" fill="white"/>
<mask id="path-1-inside-1_18_1538" fill="white">
<path d="M479.083 112.796C474.43 113.214 467.052 114.019 462.677 114.596C458.302 115.173 450.695 116.366 445.773 117.261C440.851 118.146 434.358 119.249 431.355 119.697C428.352 120.154 421.641 121.675 416.44 123.077C411.24 124.489 404.081 126.498 400.531 127.542C396.981 128.586 388.917 131.251 382.633 133.458C376.349 135.656 368.066 138.658 364.238 140.11C360.41 141.572 351.461 145.47 344.351 148.781C337.242 152.082 324.942 158.495 317.007 163.009C309.073 167.534 297.439 174.722 291.155 178.978C284.871 183.234 277.413 188.315 274.589 190.264C271.765 192.223 265.054 197.373 259.674 201.728C254.295 206.083 241.11 218.393 230.391 229.072C219.663 239.761 208.079 252.081 204.638 256.456C201.208 260.831 196.515 266.647 194.218 269.382C191.911 272.116 187.496 278.152 184.404 282.805C181.301 287.459 178.159 292.152 177.404 293.245C176.658 294.339 174.033 298.366 171.577 302.194C169.111 306.022 165.432 312.287 163.393 316.115C161.345 319.943 156.652 329.111 152.963 336.498C149.274 343.886 144.332 354.844 141.986 360.859C139.649 366.875 136.636 374.481 135.294 377.763C133.961 381.044 131.784 387.527 130.461 392.18C129.139 396.834 126.245 407.572 124.028 416.044C121.801 424.516 119.394 435.254 118.669 439.908C117.943 444.561 116.67 453.281 115.845 459.297C115.009 465.313 113.786 476.051 113.11 483.161C112.434 490.27 111.937 503.922 112.007 513.487C112.076 523.063 112.593 535.81 113.14 541.826C113.697 547.841 114.393 555.448 114.691 558.729C114.999 562.01 115.934 568.722 116.779 573.644C117.624 578.566 118.947 585.496 119.722 589.056C120.498 592.615 121.125 596.304 121.125 597.259C121.125 598.213 122.477 603.812 124.127 609.688C125.768 615.564 128.294 624.404 129.735 629.326C131.167 634.248 133.603 641.407 135.145 645.235C136.696 649.063 139.51 656.222 141.409 661.144C143.298 666.066 147.703 676.138 151.193 683.516C154.683 690.894 158.979 699.624 160.749 702.905C162.518 706.187 164.736 710.214 165.67 711.854C166.595 713.495 170.761 719.978 174.928 726.272C179.084 732.566 183.996 739.944 185.835 742.678C187.675 745.413 191.513 750.782 194.377 754.61C197.23 758.438 201.715 763.957 204.34 766.88C206.975 769.803 209.799 773.184 210.614 774.387C211.429 775.59 215.019 779.667 218.569 783.445C222.119 787.224 225.957 791.231 227.09 792.345C228.224 793.468 232.479 797.535 236.536 801.383C240.603 805.231 247.056 811.028 250.884 814.259C254.713 817.501 258.61 820.842 259.545 821.687C261.116 823.099 261.325 822.91 262.24 819.241C262.777 817.053 263.672 811.913 264.228 807.806C264.775 803.71 265.69 796.998 266.257 792.891C266.824 788.795 267.758 781.855 268.325 777.48C268.902 773.104 269.807 766.174 270.344 762.068C270.89 757.971 272.044 749.47 272.909 743.175C273.764 736.881 274.42 730.846 274.361 729.752C274.291 728.658 271.755 724.86 268.723 721.3C265.68 717.741 260.172 710.81 256.473 705.888C252.774 700.967 247.762 694.046 245.346 690.516C242.92 686.976 238.117 679.151 234.677 673.116C231.227 667.08 226.036 657.216 223.133 651.201C220.239 645.185 215.834 635.123 213.358 628.829C210.883 622.535 207.472 613.148 205.792 607.948C204.101 602.748 201.417 592.914 199.816 586.073C198.215 579.242 196.196 569.398 195.341 564.198C194.476 558.997 193.243 549.611 192.607 543.317C191.841 535.82 191.652 522.794 192.05 505.533C192.378 491.046 193.104 475.385 193.661 470.732C194.228 466.078 195.093 460.49 195.6 458.303C196.107 456.115 197.051 451.193 197.698 447.365C198.354 443.537 201.049 432.798 203.694 423.501C206.348 414.205 210.057 402.571 211.947 397.649C213.846 392.727 216.292 386.463 217.395 383.729C218.499 380.994 221.502 374.73 224.077 369.808C226.643 364.886 230.65 357.28 232.977 352.905C235.303 348.53 238.366 343.16 239.788 340.973C241.2 338.785 243.168 335.882 244.143 334.51C245.117 333.148 248.995 327.778 252.764 322.578C256.532 317.388 263.741 308.21 268.792 302.194C273.844 296.179 282.395 287.001 287.794 281.801C293.193 276.601 301.645 268.954 306.567 264.808C311.489 260.672 317.982 255.561 320.985 253.463C323.988 251.375 328.243 248.362 330.431 246.781C332.618 245.2 338.435 241.252 343.357 238.001C348.279 234.76 352.644 232.105 353.052 232.105C353.46 232.095 357.825 229.858 362.747 227.123C367.668 224.389 376.727 219.875 382.882 217.1C389.037 214.316 402.788 209.176 413.457 205.666C424.127 202.156 437.55 198.397 443.287 197.313C449.025 196.23 457.526 194.698 462.179 193.913C466.833 193.127 476.001 191.934 482.563 191.268C490.637 190.443 503.017 190.244 520.845 190.652C537.44 191.029 550.695 191.835 556.641 192.829C561.841 193.694 568.99 194.818 572.55 195.335C576.11 195.852 582.364 197.194 586.471 198.318C590.567 199.431 595.718 200.774 597.905 201.291C600.093 201.798 607.471 204.194 614.312 206.61C621.143 209.027 630.549 212.596 635.193 214.545C639.836 216.494 650.585 221.615 659.057 225.92C667.528 230.235 678.943 236.728 684.412 240.358C689.881 243.987 696.364 248.362 698.83 250.082C701.296 251.802 707.53 256.625 712.701 260.801C717.861 264.967 728.56 274.652 736.475 282.308C744.38 289.964 754.254 300.395 758.4 305.476C762.556 310.567 767.856 317.278 770.193 320.39C772.52 323.513 776.507 329.19 779.042 333.018C781.578 336.846 785.854 343.787 788.538 348.43C791.233 353.084 793.957 357.648 794.604 358.592C795.518 359.925 795.489 360.591 794.484 361.575C793.45 362.599 768.98 362.848 671.486 362.848C591.691 362.848 549.432 363.186 548.766 363.842C548.209 364.389 547.274 367.074 546.688 369.808C546.101 372.543 545.166 378.141 544.609 382.237C544.043 386.344 543.158 392.827 542.631 396.655C542.114 400.483 541.278 406.976 540.791 411.072C540.304 415.179 538.991 424.794 537.878 432.45C536.754 440.107 535.402 449.284 534.865 452.834C534.328 456.384 533.383 463.095 532.777 467.749C532.16 472.402 531.256 478.438 530.758 481.172C530.271 483.906 529.386 490.618 528.8 496.087C528.213 501.556 527.278 508.943 526.711 512.493C526.155 516.043 525.319 522.536 524.862 526.911C524.405 531.286 523.53 537.55 522.933 540.831C522.336 544.113 521.193 551.719 520.407 557.735C519.612 563.75 518.289 573.375 517.474 579.113C516.649 584.85 515.008 595.817 513.825 603.473C512.642 611.13 511.299 620.297 510.852 623.857C510.404 627.417 509.549 634.128 508.943 638.772C508.336 643.415 507.69 648.566 507.501 650.206C507.312 651.847 506.198 659.901 505.045 668.104C503.882 676.307 502.509 684.809 501.992 686.996C501.475 689.184 501.257 691.978 501.505 693.211C501.823 694.822 502.848 695.597 505.184 695.985C506.964 696.273 562.656 696.393 628.958 696.234L749.501 695.945C754.542 689.88 756.67 687.116 757.495 685.893C758.321 684.66 760.806 681.06 763.024 677.869C765.241 674.687 768.582 669.397 770.451 666.116C772.321 662.834 774.757 658.499 775.861 656.481C776.974 654.472 779.4 649.998 781.26 646.537C783.119 643.087 786.589 635.451 788.966 629.574C792.187 621.61 792.973 618.706 792.048 618.189C791.362 617.802 750.764 617.384 701.813 617.265C652.862 617.135 609.131 617.006 604.617 616.966C598.969 616.917 596.295 616.509 596.046 615.654C595.847 614.968 596.086 611.508 596.593 607.948C597.09 604.388 598.184 597.239 599.009 592.039C599.844 586.838 600.928 581.022 601.435 579.113C601.932 577.203 602.36 574.061 602.38 572.152C602.4 570.243 602.738 568.135 603.146 567.469C603.692 566.554 619.83 566.196 670.78 565.978C728.948 565.729 737.808 565.49 738.623 564.198C739.14 563.372 739.756 561.364 739.995 559.723C740.234 558.083 741.616 547.344 743.078 535.86C744.539 524.375 746.12 513.189 746.588 511.002C747.065 508.814 747.761 504.111 748.139 500.561L748.825 494.098C744.37 492.786 714.441 492.477 679.44 492.557C628.421 492.676 615.545 492.448 614.511 491.414C613.656 490.568 613.397 488.739 613.755 486.144C614.053 483.956 614.928 477.692 615.704 472.223C616.48 466.754 617.852 457.806 618.747 452.337C619.651 446.868 620.626 442.165 620.914 441.896C621.203 441.628 681.021 441.509 753.846 441.648C826.671 441.787 890.397 441.668 895.458 441.399L904.656 440.902C904.656 433.962 903.513 427.588 902.111 422.259C900.709 416.929 898.66 409.432 897.557 405.604C896.453 401.776 894.056 393.94 892.227 388.203C890.407 382.466 886.897 372.612 884.441 366.328C881.975 360.044 878.644 351.761 877.043 347.933C875.433 344.105 872.639 338.059 870.849 334.51C869.049 330.96 864.366 322.459 860.458 315.618C856.54 308.787 850.724 299.162 847.522 294.24C844.33 289.318 838.066 280.369 833.601 274.353C829.127 268.338 821.033 258.275 815.594 252.001C810.165 245.717 801.634 236.321 796.652 231.12C791.66 225.91 781.817 216.643 774.777 210.508C767.727 204.383 757.724 196.18 752.524 192.282C747.323 188.384 738.673 182.21 733.283 178.561C727.894 174.921 719.84 169.791 715.385 167.156C710.931 164.531 697.885 157.759 686.401 152.112C674.916 146.464 660.598 140.021 654.582 137.803C648.567 135.576 640.96 132.862 637.679 131.768C634.397 130.674 626.234 128.188 619.532 126.249C612.83 124.31 606.566 122.71 605.612 122.71C604.657 122.7 601.634 122.063 598.9 121.288C596.165 120.512 589.225 118.961 583.488 117.818C577.75 116.684 568.801 115.302 563.601 114.745C558.401 114.188 551.023 113.333 547.195 112.846C543.366 112.359 528.372 111.981 513.885 112.001C499.397 112.031 483.737 112.389 479.083 112.796ZM263.562 363.096L249.393 363.345C242.84 375.893 239.867 381.601 238.555 384.116C237.242 386.642 234.2 393.851 231.793 400.135C229.397 406.429 226.086 415.815 224.455 421.016C222.825 426.216 221.224 432.033 220.905 433.942C220.408 436.974 220.627 437.511 222.685 438.158C223.978 438.555 250.318 438.874 281.212 438.854C325.917 438.834 337.64 439.092 338.624 440.117C339.31 440.823 339.529 441.777 339.121 442.244C338.714 442.712 338.047 446.957 337.63 451.69C337.212 456.423 336.665 462.529 336.417 465.263C336.168 467.997 335.512 472.243 334.965 474.709C334.408 477.175 333.255 484.781 332.39 491.612C331.525 498.453 330.361 506.955 329.804 510.504C329.248 514.064 328.77 518.091 328.75 519.453C328.721 520.826 328.124 525.3 327.418 529.397C326.712 533.503 325.628 541.557 325.002 547.294C324.385 553.032 323.461 559.972 322.963 562.706C322.466 565.441 321.551 571.257 320.935 575.632C320.328 580.007 319.394 586.719 318.867 590.547C318.35 594.375 317.534 601.316 317.067 605.959C316.61 610.603 315.695 618.219 315.049 622.863C314.392 627.506 313.169 635.789 312.314 641.258C311.459 646.726 310.405 654.78 309.968 659.155C309.53 663.53 308.705 669.795 308.118 673.076C307.531 676.357 306.597 682.85 306.04 687.494C305.483 692.137 304.588 699.077 304.051 702.905C303.514 706.734 302.202 716.577 301.128 724.781C300.054 732.984 298.702 743.504 298.135 748.147C297.568 752.791 296.614 759.283 296.007 762.565C295.401 765.846 294.078 775.014 293.074 782.948C292.07 790.883 290.111 805.867 288.729 816.258C287.347 826.649 286.213 836.383 286.203 837.884C286.193 839.664 287.128 841.394 288.898 842.856C290.389 844.089 296.544 848.106 302.57 851.785C308.595 855.454 316.212 859.869 319.493 861.589C322.775 863.299 326.135 865.248 326.951 865.904C327.766 866.561 333.593 869.474 339.877 872.387C346.161 875.301 356.681 879.895 363.244 882.589C369.806 885.284 383.677 890.076 394.068 893.238C404.459 896.41 416.092 899.781 419.92 900.735C423.749 901.69 428.671 902.873 430.858 903.37C433.046 903.868 439.081 904.941 444.282 905.757C449.482 906.572 458.431 907.875 464.168 908.65C469.905 909.416 482.881 910.609 493.004 911.275C507.402 912.23 515.187 912.24 528.8 911.315C538.375 910.659 550.904 909.674 556.641 909.118C562.378 908.561 572.222 907.228 578.516 906.145C584.81 905.071 597.11 902.416 605.86 900.258C614.61 898.1 627.367 894.531 634.198 892.314C641.039 890.106 652.892 885.811 660.548 882.768C668.205 879.725 682.97 872.964 693.361 867.744C703.752 862.534 713.377 857.502 714.739 856.588C716.111 855.663 718.677 853.933 720.457 852.73C722.236 851.536 723.917 850.562 724.185 850.562C724.454 850.562 728.371 848.046 732.886 844.964C737.4 841.882 744.45 836.88 748.546 833.838C752.653 830.795 758.47 826.261 761.473 823.775C764.475 821.279 771.863 814.926 777.879 809.656C783.895 804.386 794.186 794.542 800.749 787.781C807.311 781.019 816.34 771.016 820.814 765.548C825.289 760.079 830.32 753.815 831.99 751.627C833.671 749.44 839.677 740.71 845.344 732.238C851.012 723.766 857.356 713.694 859.444 709.866C861.532 706.038 864.853 699.773 866.832 695.945C868.801 692.117 870.928 688.09 871.555 686.996C872.171 685.903 874.23 681.657 876.129 677.55C878.028 673.454 881.25 665.847 883.288 660.647C885.316 655.447 889.135 644.718 891.76 636.783C894.385 628.848 897.716 617.662 899.167 611.925C900.619 606.188 902.429 599.019 903.184 596.016C903.95 593.013 905.034 588.31 905.581 585.576C906.138 582.841 907.092 577.025 907.709 572.65C908.325 568.274 909.26 561.115 909.777 556.74C910.304 552.365 911.079 540.961 911.507 531.385C911.935 521.82 912.123 506.825 911.915 498.075C911.716 489.325 911.089 478.925 910.532 474.958L909.508 467.749C903.821 467.659 886.281 467.679 866.872 467.719C847.462 467.769 831.513 467.908 831.444 468.027C831.374 468.146 831.792 479.203 832.368 492.607C833.174 511.23 833.124 521.183 832.169 534.865C831.473 544.709 830.26 556.571 829.465 561.215C828.669 565.858 826.89 575.036 825.497 581.598C824.115 588.161 822.047 596.434 820.924 599.993C819.79 603.553 816.867 612.273 814.441 619.383C812.004 626.492 808.435 635.67 806.496 639.766C804.567 643.873 800.719 651.927 797.955 657.664C795.19 663.401 790.626 671.684 787.802 676.059C784.979 680.434 781.479 686.022 780.017 688.488C778.555 690.954 775.234 695.935 772.649 699.575C770.054 703.214 764.068 710.82 759.345 716.478C754.612 722.136 746.11 731.423 740.452 737.12C734.785 742.808 725.905 751.14 720.705 755.634C715.505 760.119 707.232 766.731 702.31 770.33C697.388 773.92 688.439 779.955 682.423 783.744C676.408 787.522 664.774 794.015 656.571 798.161C648.368 802.308 637.848 807.24 633.204 809.139C628.561 811.028 620.049 814.18 614.312 816.129C608.575 818.078 599.397 820.862 593.928 822.313C588.459 823.765 580.405 825.585 576.03 826.36C571.655 827.136 565.61 828.2 562.607 828.727C559.604 829.254 551.55 830.238 544.709 830.924C537.878 831.61 523.331 832.167 512.393 832.167C501.456 832.167 486.471 831.58 479.083 830.855C471.705 830.139 460.738 828.667 454.722 827.583C448.706 826.509 440.205 824.69 435.83 823.556C431.455 822.413 424.743 820.603 420.915 819.519C417.087 818.436 410.375 816.198 406 814.538C401.625 812.887 393.571 809.765 388.102 807.607C382.633 805.45 377.602 803.163 376.916 802.516C375.911 801.572 376.051 797.972 377.622 784.44C378.706 775.143 380.048 765.965 380.615 764.056C381.181 762.147 381.639 758.677 381.639 756.35C381.639 754.023 382.096 749.102 382.653 745.413C383.21 741.724 384.343 733.998 385.169 728.261C385.984 722.523 387.525 711.337 388.579 703.403C389.643 695.468 391.632 680.484 393.014 670.093C394.386 659.702 396.027 647.621 396.663 643.246C397.299 638.871 398.175 631.712 398.602 627.337C399.04 622.962 399.875 616.479 400.471 612.919C401.058 609.36 401.963 603.324 402.49 599.496C403.007 595.668 404.15 587.395 405.035 581.101C405.92 574.807 407.004 566.534 407.462 562.706C407.919 558.878 409.003 550.158 409.878 543.317C410.753 536.486 411.936 527.537 412.503 523.431C413.06 519.334 414.213 510.833 415.058 504.539C415.903 498.254 417.007 490.638 417.514 487.635C418.031 484.632 418.876 478.587 419.413 474.212C419.94 469.837 420.855 462.906 421.442 458.8C422.028 454.703 422.774 449.105 423.082 446.371C423.401 443.636 424.156 440.823 424.773 440.117C425.648 439.092 434.835 438.834 468.643 438.884C501.634 438.933 511.806 438.655 513.169 437.69C514.431 436.796 515.336 433.822 516.301 427.479C517.047 422.557 518.23 414.503 518.946 409.581C519.652 404.659 520.109 400.185 519.95 399.638C519.791 399.091 520.139 396.406 520.706 393.672C521.282 390.937 522.207 386.016 522.774 382.734C523.351 379.453 523.997 373.865 524.226 370.305L524.643 363.842C519.771 362.649 464.218 362.42 398.045 362.569C331.873 362.729 271.358 362.957 263.562 363.096Z"/>
</mask>
<path d="M479.083 112.796C474.43 113.214 467.052 114.019 462.677 114.596C458.302 115.173 450.695 116.366 445.773 117.261C440.851 118.146 434.358 119.249 431.355 119.697C428.352 120.154 421.641 121.675 416.44 123.077C411.24 124.489 404.081 126.498 400.531 127.542C396.981 128.586 388.917 131.251 382.633 133.458C376.349 135.656 368.066 138.658 364.238 140.11C360.41 141.572 351.461 145.47 344.351 148.781C337.242 152.082 324.942 158.495 317.007 163.009C309.073 167.534 297.439 174.722 291.155 178.978C284.871 183.234 277.413 188.315 274.589 190.264C271.765 192.223 265.054 197.373 259.674 201.728C254.295 206.083 241.11 218.393 230.391 229.072C219.663 239.761 208.079 252.081 204.638 256.456C201.208 260.831 196.515 266.647 194.218 269.382C191.911 272.116 187.496 278.152 184.404 282.805C181.301 287.459 178.159 292.152 177.404 293.245C176.658 294.339 174.033 298.366 171.577 302.194C169.111 306.022 165.432 312.287 163.393 316.115C161.345 319.943 156.652 329.111 152.963 336.498C149.274 343.886 144.332 354.844 141.986 360.859C139.649 366.875 136.636 374.481 135.294 377.763C133.961 381.044 131.784 387.527 130.461 392.18C129.139 396.834 126.245 407.572 124.028 416.044C121.801 424.516 119.394 435.254 118.669 439.908C117.943 444.561 116.67 453.281 115.845 459.297C115.009 465.313 113.786 476.051 113.11 483.161C112.434 490.27 111.937 503.922 112.007 513.487C112.076 523.063 112.593 535.81 113.14 541.826C113.697 547.841 114.393 555.448 114.691 558.729C114.999 562.01 115.934 568.722 116.779 573.644C117.624 578.566 118.947 585.496 119.722 589.056C120.498 592.615 121.125 596.304 121.125 597.259C121.125 598.213 122.477 603.812 124.127 609.688C125.768 615.564 128.294 624.404 129.735 629.326C131.167 634.248 133.603 641.407 135.145 645.235C136.696 649.063 139.51 656.222 141.409 661.144C143.298 666.066 147.703 676.138 151.193 683.516C154.683 690.894 158.979 699.624 160.749 702.905C162.518 706.187 164.736 710.214 165.67 711.854C166.595 713.495 170.761 719.978 174.928 726.272C179.084 732.566 183.996 739.944 185.835 742.678C187.675 745.413 191.513 750.782 194.377 754.61C197.23 758.438 201.715 763.957 204.34 766.88C206.975 769.803 209.799 773.184 210.614 774.387C211.429 775.59 215.019 779.667 218.569 783.445C222.119 787.224 225.957 791.231 227.09 792.345C228.224 793.468 232.479 797.535 236.536 801.383C240.603 805.231 247.056 811.028 250.884 814.259C254.713 817.501 258.61 820.842 259.545 821.687C261.116 823.099 261.325 822.91 262.24 819.241C262.777 817.053 263.672 811.913 264.228 807.806C264.775 803.71 265.69 796.998 266.257 792.891C266.824 788.795 267.758 781.855 268.325 777.48C268.902 773.104 269.807 766.174 270.344 762.068C270.89 757.971 272.044 749.47 272.909 743.175C273.764 736.881 274.42 730.846 274.361 729.752C274.291 728.658 271.755 724.86 268.723 721.3C265.68 717.741 260.172 710.81 256.473 705.888C252.774 700.967 247.762 694.046 245.346 690.516C242.92 686.976 238.117 679.151 234.677 673.116C231.227 667.08 226.036 657.216 223.133 651.201C220.239 645.185 215.834 635.123 213.358 628.829C210.883 622.535 207.472 613.148 205.792 607.948C204.101 602.748 201.417 592.914 199.816 586.073C198.215 579.242 196.196 569.398 195.341 564.198C194.476 558.997 193.243 549.611 192.607 543.317C191.841 535.82 191.652 522.794 192.05 505.533C192.378 491.046 193.104 475.385 193.661 470.732C194.228 466.078 195.093 460.49 195.6 458.303C196.107 456.115 197.051 451.193 197.698 447.365C198.354 443.537 201.049 432.798 203.694 423.501C206.348 414.205 210.057 402.571 211.947 397.649C213.846 392.727 216.292 386.463 217.395 383.729C218.499 380.994 221.502 374.73 224.077 369.808C226.643 364.886 230.65 357.28 232.977 352.905C235.303 348.53 238.366 343.16 239.788 340.973C241.2 338.785 243.168 335.882 244.143 334.51C245.117 333.148 248.995 327.778 252.764 322.578C256.532 317.388 263.741 308.21 268.792 302.194C273.844 296.179 282.395 287.001 287.794 281.801C293.193 276.601 301.645 268.954 306.567 264.808C311.489 260.672 317.982 255.561 320.985 253.463C323.988 251.375 328.243 248.362 330.431 246.781C332.618 245.2 338.435 241.252 343.357 238.001C348.279 234.76 352.644 232.105 353.052 232.105C353.46 232.095 357.825 229.858 362.747 227.123C367.668 224.389 376.727 219.875 382.882 217.1C389.037 214.316 402.788 209.176 413.457 205.666C424.127 202.156 437.55 198.397 443.287 197.313C449.025 196.23 457.526 194.698 462.179 193.913C466.833 193.127 476.001 191.934 482.563 191.268C490.637 190.443 503.017 190.244 520.845 190.652C537.44 191.029 550.695 191.835 556.641 192.829C561.841 193.694 568.99 194.818 572.55 195.335C576.11 195.852 582.364 197.194 586.471 198.318C590.567 199.431 595.718 200.774 597.905 201.291C600.093 201.798 607.471 204.194 614.312 206.61C621.143 209.027 630.549 212.596 635.193 214.545C639.836 216.494 650.585 221.615 659.057 225.92C667.528 230.235 678.943 236.728 684.412 240.358C689.881 243.987 696.364 248.362 698.83 250.082C701.296 251.802 707.53 256.625 712.701 260.801C717.861 264.967 728.56 274.652 736.475 282.308C744.38 289.964 754.254 300.395 758.4 305.476C762.556 310.567 767.856 317.278 770.193 320.39C772.52 323.513 776.507 329.19 779.042 333.018C781.578 336.846 785.854 343.787 788.538 348.43C791.233 353.084 793.957 357.648 794.604 358.592C795.518 359.925 795.489 360.591 794.484 361.575C793.45 362.599 768.98 362.848 671.486 362.848C591.691 362.848 549.432 363.186 548.766 363.842C548.209 364.389 547.274 367.074 546.688 369.808C546.101 372.543 545.166 378.141 544.609 382.237C544.043 386.344 543.158 392.827 542.631 396.655C542.114 400.483 541.278 406.976 540.791 411.072C540.304 415.179 538.991 424.794 537.878 432.45C536.754 440.107 535.402 449.284 534.865 452.834C534.328 456.384 533.383 463.095 532.777 467.749C532.16 472.402 531.256 478.438 530.758 481.172C530.271 483.906 529.386 490.618 528.8 496.087C528.213 501.556 527.278 508.943 526.711 512.493C526.155 516.043 525.319 522.536 524.862 526.911C524.405 531.286 523.53 537.55 522.933 540.831C522.336 544.113 521.193 551.719 520.407 557.735C519.612 563.75 518.289 573.375 517.474 579.113C516.649 584.85 515.008 595.817 513.825 603.473C512.642 611.13 511.299 620.297 510.852 623.857C510.404 627.417 509.549 634.128 508.943 638.772C508.336 643.415 507.69 648.566 507.501 650.206C507.312 651.847 506.198 659.901 505.045 668.104C503.882 676.307 502.509 684.809 501.992 686.996C501.475 689.184 501.257 691.978 501.505 693.211C501.823 694.822 502.848 695.597 505.184 695.985C506.964 696.273 562.656 696.393 628.958 696.234L749.501 695.945C754.542 689.88 756.67 687.116 757.495 685.893C758.321 684.66 760.806 681.06 763.024 677.869C765.241 674.687 768.582 669.397 770.451 666.116C772.321 662.834 774.757 658.499 775.861 656.481C776.974 654.472 779.4 649.998 781.26 646.537C783.119 643.087 786.589 635.451 788.966 629.574C792.187 621.61 792.973 618.706 792.048 618.189C791.362 617.802 750.764 617.384 701.813 617.265C652.862 617.135 609.131 617.006 604.617 616.966C598.969 616.917 596.295 616.509 596.046 615.654C595.847 614.968 596.086 611.508 596.593 607.948C597.09 604.388 598.184 597.239 599.009 592.039C599.844 586.838 600.928 581.022 601.435 579.113C601.932 577.203 602.36 574.061 602.38 572.152C602.4 570.243 602.738 568.135 603.146 567.469C603.692 566.554 619.83 566.196 670.78 565.978C728.948 565.729 737.808 565.49 738.623 564.198C739.14 563.372 739.756 561.364 739.995 559.723C740.234 558.083 741.616 547.344 743.078 535.86C744.539 524.375 746.12 513.189 746.588 511.002C747.065 508.814 747.761 504.111 748.139 500.561L748.825 494.098C744.37 492.786 714.441 492.477 679.44 492.557C628.421 492.676 615.545 492.448 614.511 491.414C613.656 490.568 613.397 488.739 613.755 486.144C614.053 483.956 614.928 477.692 615.704 472.223C616.48 466.754 617.852 457.806 618.747 452.337C619.651 446.868 620.626 442.165 620.914 441.896C621.203 441.628 681.021 441.509 753.846 441.648C826.671 441.787 890.397 441.668 895.458 441.399L904.656 440.902C904.656 433.962 903.513 427.588 902.111 422.259C900.709 416.929 898.66 409.432 897.557 405.604C896.453 401.776 894.056 393.94 892.227 388.203C890.407 382.466 886.897 372.612 884.441 366.328C881.975 360.044 878.644 351.761 877.043 347.933C875.433 344.105 872.639 338.059 870.849 334.51C869.049 330.96 864.366 322.459 860.458 315.618C856.54 308.787 850.724 299.162 847.522 294.24C844.33 289.318 838.066 280.369 833.601 274.353C829.127 268.338 821.033 258.275 815.594 252.001C810.165 245.717 801.634 236.321 796.652 231.12C791.66 225.91 781.817 216.643 774.777 210.508C767.727 204.383 757.724 196.18 752.524 192.282C747.323 188.384 738.673 182.21 733.283 178.561C727.894 174.921 719.84 169.791 715.385 167.156C710.931 164.531 697.885 157.759 686.401 152.112C674.916 146.464 660.598 140.021 654.582 137.803C648.567 135.576 640.96 132.862 637.679 131.768C634.397 130.674 626.234 128.188 619.532 126.249C612.83 124.31 606.566 122.71 605.612 122.71C604.657 122.7 601.634 122.063 598.9 121.288C596.165 120.512 589.225 118.961 583.488 117.818C577.75 116.684 568.801 115.302 563.601 114.745C558.401 114.188 551.023 113.333 547.195 112.846C543.366 112.359 528.372 111.981 513.885 112.001C499.397 112.031 483.737 112.389 479.083 112.796ZM263.562 363.096L249.393 363.345C242.84 375.893 239.867 381.601 238.555 384.116C237.242 386.642 234.2 393.851 231.793 400.135C229.397 406.429 226.086 415.815 224.455 421.016C222.825 426.216 221.224 432.033 220.905 433.942C220.408 436.974 220.627 437.511 222.685 438.158C223.978 438.555 250.318 438.874 281.212 438.854C325.917 438.834 337.64 439.092 338.624 440.117C339.31 440.823 339.529 441.777 339.121 442.244C338.714 442.712 338.047 446.957 337.63 451.69C337.212 456.423 336.665 462.529 336.417 465.263C336.168 467.997 335.512 472.243 334.965 474.709C334.408 477.175 333.255 484.781 332.39 491.612C331.525 498.453 330.361 506.955 329.804 510.504C329.248 514.064 328.77 518.091 328.75 519.453C328.721 520.826 328.124 525.3 327.418 529.397C326.712 533.503 325.628 541.557 325.002 547.294C324.385 553.032 323.461 559.972 322.963 562.706C322.466 565.441 321.551 571.257 320.935 575.632C320.328 580.007 319.394 586.719 318.867 590.547C318.35 594.375 317.534 601.316 317.067 605.959C316.61 610.603 315.695 618.219 315.049 622.863C314.392 627.506 313.169 635.789 312.314 641.258C311.459 646.726 310.405 654.78 309.968 659.155C309.53 663.53 308.705 669.795 308.118 673.076C307.531 676.357 306.597 682.85 306.04 687.494C305.483 692.137 304.588 699.077 304.051 702.905C303.514 706.734 302.202 716.577 301.128 724.781C300.054 732.984 298.702 743.504 298.135 748.147C297.568 752.791 296.614 759.283 296.007 762.565C295.401 765.846 294.078 775.014 293.074 782.948C292.07 790.883 290.111 805.867 288.729 816.258C287.347 826.649 286.213 836.383 286.203 837.884C286.193 839.664 287.128 841.394 288.898 842.856C290.389 844.089 296.544 848.106 302.57 851.785C308.595 855.454 316.212 859.869 319.493 861.589C322.775 863.299 326.135 865.248 326.951 865.904C327.766 866.561 333.593 869.474 339.877 872.387C346.161 875.301 356.681 879.895 363.244 882.589C369.806 885.284 383.677 890.076 394.068 893.238C404.459 896.41 416.092 899.781 419.92 900.735C423.749 901.69 428.671 902.873 430.858 903.37C433.046 903.868 439.081 904.941 444.282 905.757C449.482 906.572 458.431 907.875 464.168 908.65C469.905 909.416 482.881 910.609 493.004 911.275C507.402 912.23 515.187 912.24 528.8 911.315C538.375 910.659 550.904 909.674 556.641 909.118C562.378 908.561 572.222 907.228 578.516 906.145C584.81 905.071 597.11 902.416 605.86 900.258C614.61 898.1 627.367 894.531 634.198 892.314C641.039 890.106 652.892 885.811 660.548 882.768C668.205 879.725 682.97 872.964 693.361 867.744C703.752 862.534 713.377 857.502 714.739 856.588C716.111 855.663 718.677 853.933 720.457 852.73C722.236 851.536 723.917 850.562 724.185 850.562C724.454 850.562 728.371 848.046 732.886 844.964C737.4 841.882 744.45 836.88 748.546 833.838C752.653 830.795 758.47 826.261 761.473 823.775C764.475 821.279 771.863 814.926 777.879 809.656C783.895 804.386 794.186 794.542 800.749 787.781C807.311 781.019 816.34 771.016 820.814 765.548C825.289 760.079 830.32 753.815 831.99 751.627C833.671 749.44 839.677 740.71 845.344 732.238C851.012 723.766 857.356 713.694 859.444 709.866C861.532 706.038 864.853 699.773 866.832 695.945C868.801 692.117 870.928 688.09 871.555 686.996C872.171 685.903 874.23 681.657 876.129 677.55C878.028 673.454 881.25 665.847 883.288 660.647C885.316 655.447 889.135 644.718 891.76 636.783C894.385 628.848 897.716 617.662 899.167 611.925C900.619 606.188 902.429 599.019 903.184 596.016C903.95 593.013 905.034 588.31 905.581 585.576C906.138 582.841 907.092 577.025 907.709 572.65C908.325 568.274 909.26 561.115 909.777 556.74C910.304 552.365 911.079 540.961 911.507 531.385C911.935 521.82 912.123 506.825 911.915 498.075C911.716 489.325 911.089 478.925 910.532 474.958L909.508 467.749C903.821 467.659 886.281 467.679 866.872 467.719C847.462 467.769 831.513 467.908 831.444 468.027C831.374 468.146 831.792 479.203 832.368 492.607C833.174 511.23 833.124 521.183 832.169 534.865C831.473 544.709 830.26 556.571 829.465 561.215C828.669 565.858 826.89 575.036 825.497 581.598C824.115 588.161 822.047 596.434 820.924 599.993C819.79 603.553 816.867 612.273 814.441 619.383C812.004 626.492 808.435 635.67 806.496 639.766C804.567 643.873 800.719 651.927 797.955 657.664C795.19 663.401 790.626 671.684 787.802 676.059C784.979 680.434 781.479 686.022 780.017 688.488C778.555 690.954 775.234 695.935 772.649 699.575C770.054 703.214 764.068 710.82 759.345 716.478C754.612 722.136 746.11 731.423 740.452 737.12C734.785 742.808 725.905 751.14 720.705 755.634C715.505 760.119 707.232 766.731 702.31 770.33C697.388 773.92 688.439 779.955 682.423 783.744C676.408 787.522 664.774 794.015 656.571 798.161C648.368 802.308 637.848 807.24 633.204 809.139C628.561 811.028 620.049 814.18 614.312 816.129C608.575 818.078 599.397 820.862 593.928 822.313C588.459 823.765 580.405 825.585 576.03 826.36C571.655 827.136 565.61 828.2 562.607 828.727C559.604 829.254 551.55 830.238 544.709 830.924C537.878 831.61 523.331 832.167 512.393 832.167C501.456 832.167 486.471 831.58 479.083 830.855C471.705 830.139 460.738 828.667 454.722 827.583C448.706 826.509 440.205 824.69 435.83 823.556C431.455 822.413 424.743 820.603 420.915 819.519C417.087 818.436 410.375 816.198 406 814.538C401.625 812.887 393.571 809.765 388.102 807.607C382.633 805.45 377.602 803.163 376.916 802.516C375.911 801.572 376.051 797.972 377.622 784.44C378.706 775.143 380.048 765.965 380.615 764.056C381.181 762.147 381.639 758.677 381.639 756.35C381.639 754.023 382.096 749.102 382.653 745.413C383.21 741.724 384.343 733.998 385.169 728.261C385.984 722.523 387.525 711.337 388.579 703.403C389.643 695.468 391.632 680.484 393.014 670.093C394.386 659.702 396.027 647.621 396.663 643.246C397.299 638.871 398.175 631.712 398.602 627.337C399.04 622.962 399.875 616.479 400.471 612.919C401.058 609.36 401.963 603.324 402.49 599.496C403.007 595.668 404.15 587.395 405.035 581.101C405.92 574.807 407.004 566.534 407.462 562.706C407.919 558.878 409.003 550.158 409.878 543.317C410.753 536.486 411.936 527.537 412.503 523.431C413.06 519.334 414.213 510.833 415.058 504.539C415.903 498.254 417.007 490.638 417.514 487.635C418.031 484.632 418.876 478.587 419.413 474.212C419.94 469.837 420.855 462.906 421.442 458.8C422.028 454.703 422.774 449.105 423.082 446.371C423.401 443.636 424.156 440.823 424.773 440.117C425.648 439.092 434.835 438.834 468.643 438.884C501.634 438.933 511.806 438.655 513.169 437.69C514.431 436.796 515.336 433.822 516.301 427.479C517.047 422.557 518.23 414.503 518.946 409.581C519.652 404.659 520.109 400.185 519.95 399.638C519.791 399.091 520.139 396.406 520.706 393.672C521.282 390.937 522.207 386.016 522.774 382.734C523.351 379.453 523.997 373.865 524.226 370.305L524.643 363.842C519.771 362.649 464.218 362.42 398.045 362.569C331.873 362.729 271.358 362.957 263.562 363.096Z" fill="#FF0000" stroke="black" stroke-opacity="0.5" stroke-width="0.2" mask="url(#path-1-inside-1_18_1538)"/>
</svg>
